<svg width="34" height="34" viewBox="0 0 34 34" fill="none" xmlns="http://www.w3.org/2000/svg">
<g clip-path="url(#clip0_1_380)">
<path d="M33.1299 17.0801C33.1299 7.96744 25.7425 0.580078 16.6299 0.580078C7.51724 0.580078 0.129883 7.96744 0.129883 17.0801C0.129883 25.3156 6.16373 32.1419 14.0518 33.3796V21.8496H9.8623V17.0801H14.0518V13.4449C14.0518 9.30961 16.5152 7.02539 20.2841 7.02539C22.0893 7.02539 23.9775 7.34766 23.9775 7.34766V11.4082H21.897C19.8473 11.4082 19.208 12.6801 19.208 13.985V17.0801H23.7842L23.0526 21.8496H19.208V33.3796C27.096 32.1419 33.1299 25.3158 33.1299 17.0801Z" fill="#1877F2"/>
<path d="M23.0526 21.8496L23.7842 17.0801H19.208V13.985C19.208 12.68 19.8473 11.4082 21.897 11.4082H23.9775V7.34766C23.9775 7.34766 22.0893 7.02539 20.284 7.02539C16.5152 7.02539 14.0518 9.30961 14.0518 13.4449V17.0801H9.8623V21.8496H14.0518V33.3796C14.9046 33.5133 15.7666 33.5803 16.6299 33.5801C17.4932 33.5803 18.3551 33.5133 19.208 33.3796V21.8496H23.0526Z" fill="white"/>
</g>
<defs>
<clipPath id="clip0_1_380">
<rect width="33" height="33" fill="white" transform="translate(0.129883 0.580078)"/>
</clipPath>
</defs>
</svg>
