<svg width="95" height="67" viewBox="0 0 95 67" fill="none" xmlns="http://www.w3.org/2000/svg">
<path d="M95 30.4532C95 31.2405 94.6872 31.9956 94.1305 32.5524C93.5737 33.1091 92.8186 33.4219 92.0312 33.4219H2.96875C2.18139 33.4219 1.42628 33.1091 0.869527 32.5524C0.312778 31.9956 0 31.2405 0 30.4532C0 29.6658 0.312778 28.9107 0.869527 28.3539C1.42628 27.7972 2.18139 27.4844 2.96875 27.4844H13.3297L30.9566 3.21117C31.4908 2.47778 32.1859 1.87656 32.9886 1.45367C33.7914 1.03079 34.6803 0.797488 35.5872 0.771688C36.4942 0.745889 37.3949 0.928276 38.2204 1.30484C39.0459 1.68141 39.774 2.24214 40.349 2.94398L45.1176 8.47328L45.1918 8.55863C45.4681 8.90574 45.8191 9.18607 46.2188 9.37874C46.6184 9.57141 47.0563 9.67148 47.5 9.67148C47.9437 9.67148 48.3816 9.57141 48.7812 9.37874C49.1809 9.18607 49.5319 8.90574 49.8082 8.55863L49.8824 8.47328L54.651 2.94398C55.226 2.24214 55.9541 1.68141 56.7796 1.30484C57.6051 0.928276 58.5058 0.745889 59.4128 0.771688C60.3197 0.797488 61.2086 1.03079 62.0114 1.45367C62.8141 1.87656 63.5092 2.47778 64.0434 3.21117L81.6703 27.4844H92.0312C92.8186 27.4844 93.5737 27.7972 94.1305 28.3539C94.6872 28.9107 95 29.6658 95 30.4532ZM66.7969 39.3594C63.5112 39.3601 60.341 40.5715 57.8923 42.7622C55.4435 44.9528 53.8879 47.9691 53.5229 51.2344H41.4771C41.1112 47.9721 39.557 44.9587 37.1109 42.7693C34.6649 40.5799 31.4984 39.3677 28.2156 39.3642C24.9328 39.3606 21.7637 40.5658 19.3129 42.7499C16.8621 44.934 15.3012 47.944 14.9282 51.2055C14.5552 54.467 15.396 57.7516 17.2904 60.4327C19.1847 63.1137 21.9999 65.0034 25.1987 65.7412C28.3975 66.4789 31.756 66.0131 34.6332 64.4325C37.5104 62.852 39.705 60.2673 40.798 57.1719H54.202C55.0184 59.4811 56.4539 61.5213 58.3515 63.0697C60.2492 64.6181 62.536 65.615 64.962 65.9515C67.388 66.288 69.8598 65.951 72.1073 64.9775C74.3547 64.0041 76.2913 62.4315 77.7053 60.4317C79.1193 58.4319 79.9564 56.0818 80.125 53.6384C80.2936 51.195 79.7872 48.7523 78.6613 46.5772C77.5353 44.4021 75.8331 42.5785 73.7406 41.3055C71.6482 40.0326 69.2461 39.3593 66.7969 39.3594Z" fill="#CF1D05"/>
</svg>
